<svg width="10631" height="10636" viewBox="0 0 10631 10636" fill="none" xmlns="http://www.w3.org/2000/svg">
<mask id="path-1-inside-1_193_96" fill="white">
<path d="M6733.67 7778.82C7082.14 7581.03 7384.47 7312.25 7620.86 6990.08C7857.25 6667.92 8022.37 6299.63 8105.4 5909.34C8188.43 5519.05 8187.5 5115.57 8102.67 4725.32C8017.84 4335.07 7851.02 3966.85 7613.14 3644.79C7375.27 3322.74 7071.69 3054.1 6722.31 2856.47C6372.93 2658.85 5985.62 2536.7 5585.75 2498.02C5185.88 2459.35 4782.47 2505.02 4401.95 2632.04C4021.42 2759.07 3672.36 2964.58 3377.63 3235.13L3848.98 3741.81C4072.01 3537.08 4336.16 3381.56 4624.11 3285.44C4912.07 3189.32 5217.34 3154.76 5519.94 3184.02C5822.54 3213.29 6115.63 3305.73 6380.01 3455.27C6644.4 3604.82 6874.12 3808.11 7054.13 4051.82C7234.14 4295.54 7360.38 4574.17 7424.57 4869.49C7488.77 5164.8 7489.47 5470.13 7426.64 5765.48C7363.81 6060.82 7238.86 6339.52 7059.97 6583.32C6881.09 6827.11 6652.3 7030.51 6388.61 7180.18L6733.67 7778.82Z"/>
</mask>
<path d="M6733.67 7778.82C7082.14 7581.03 7384.47 7312.25 7620.86 6990.08C7857.25 6667.92 8022.37 6299.63 8105.4 5909.34C8188.43 5519.05 8187.5 5115.57 8102.67 4725.32C8017.84 4335.07 7851.02 3966.85 7613.14 3644.79C7375.27 3322.74 7071.69 3054.1 6722.31 2856.47C6372.93 2658.85 5985.62 2536.7 5585.75 2498.02C5185.88 2459.35 4782.47 2505.02 4401.95 2632.04C4021.42 2759.07 3672.36 2964.58 3377.63 3235.13L3848.98 3741.81C4072.01 3537.08 4336.16 3381.56 4624.11 3285.44C4912.07 3189.32 5217.34 3154.76 5519.94 3184.02C5822.54 3213.29 6115.63 3305.73 6380.01 3455.27C6644.4 3604.82 6874.12 3808.11 7054.13 4051.82C7234.14 4295.54 7360.38 4574.17 7424.57 4869.49C7488.77 5164.8 7489.47 5470.13 7426.64 5765.48C7363.81 6060.82 7238.86 6339.52 7059.97 6583.32C6881.09 6827.11 6652.3 7030.51 6388.61 7180.18L6733.67 7778.82Z" stroke="#A3177C" stroke-opacity="0.18" stroke-width="381.457" mask="url(#path-1-inside-1_193_96)"/>
<mask id="path-2-inside-2_193_96" fill="white">
<path d="M9080.41 5445.27C9115.01 4590.03 8858.17 3750.39 8352.04 3064.2C7845.91 2378.02 7120.59 1886.06 6295.15 1669.12L6108.17 2365.39C6776.1 2540.94 7363.02 2939.02 7772.56 3494.27C8182.11 4049.52 8389.95 4728.94 8361.95 5420.98L9080.41 5445.27Z"/>
</mask>
<path d="M9080.41 5445.27C9115.01 4590.03 8858.17 3750.39 8352.04 3064.2C7845.91 2378.02 7120.59 1886.06 6295.15 1669.12L6108.17 2365.39C6776.1 2540.94 7363.02 2939.02 7772.56 3494.27C8182.11 4049.52 8389.95 4728.94 8361.95 5420.98L9080.41 5445.27Z" stroke="#4A19D6" stroke-opacity="0.18" stroke-width="381.457" mask="url(#path-2-inside-2_193_96)"/>
<mask id="path-3-inside-3_193_96" fill="white">
<path d="M2793.93 4898.73C2694.88 5470.93 2793.25 6058.46 3072.9 6564.86C3352.54 7071.26 3796.84 7466.43 4332.84 7685.49L4521.16 7231.65C4087.91 7054.58 3728.78 6735.16 3502.74 6325.83C3276.7 5916.51 3197.19 5441.6 3277.25 4979.09L2793.93 4898.73Z"/>
</mask>
<path d="M2793.93 4898.73C2694.88 5470.93 2793.25 6058.46 3072.9 6564.86C3352.54 7071.26 3796.84 7466.43 4332.84 7685.49L4521.16 7231.65C4087.91 7054.58 3728.78 6735.16 3502.74 6325.83C3276.7 5916.51 3197.19 5441.6 3277.25 4979.09L2793.93 4898.73Z" stroke="#A3177C" stroke-opacity="0.18" stroke-width="296.689" mask="url(#path-3-inside-3_193_96)"/>
<mask id="path-4-inside-4_193_96" fill="white">
<path d="M4838 3494.16C4553.34 3566.09 4289.98 3705.01 4069.59 3899.5C3849.2 4094 3678.07 4338.5 3570.28 4612.91C3462.49 4887.32 3421.11 5183.79 3449.55 5477.95C3477.99 5772.11 3575.44 6055.55 3733.88 6304.96C3892.31 6554.37 4107.22 6762.63 4360.91 6912.61C4614.61 7062.58 4899.85 7150 5193.18 7167.66C5486.5 7185.32 5779.54 7132.72 6048.19 7014.2C6316.83 6895.67 6553.41 6714.59 6738.47 6485.86L6387.79 6198.48C6247.75 6371.56 6068.72 6508.59 5865.43 6598.28C5662.13 6687.98 5440.38 6727.78 5218.41 6714.41C4996.44 6701.05 4780.59 6634.9 4588.61 6521.41C4396.63 6407.91 4234.01 6250.32 4114.11 6061.58C3994.22 5872.84 3920.48 5658.35 3898.95 5435.75C3877.43 5213.15 3908.74 4988.8 3990.31 4781.15C4071.88 4573.49 4201.38 4388.47 4368.16 4241.29C4534.93 4094.11 4734.22 3988.98 4949.64 3934.55L4838 3494.16Z"/>
</mask>
<path d="M4838 3494.16C4553.34 3566.09 4289.98 3705.01 4069.59 3899.5C3849.2 4094 3678.07 4338.5 3570.28 4612.91C3462.49 4887.32 3421.11 5183.79 3449.55 5477.95C3477.99 5772.11 3575.44 6055.55 3733.88 6304.96C3892.31 6554.37 4107.22 6762.63 4360.91 6912.61C4614.61 7062.58 4899.85 7150 5193.18 7167.66C5486.5 7185.32 5779.54 7132.72 6048.19 7014.2C6316.83 6895.67 6553.41 6714.59 6738.47 6485.86L6387.79 6198.48C6247.75 6371.56 6068.72 6508.59 5865.43 6598.28C5662.13 6687.98 5440.38 6727.78 5218.41 6714.41C4996.44 6701.05 4780.59 6634.9 4588.61 6521.41C4396.63 6407.91 4234.01 6250.32 4114.11 6061.58C3994.22 5872.84 3920.48 5658.35 3898.95 5435.75C3877.43 5213.15 3908.74 4988.8 3990.31 4781.15C4071.88 4573.49 4201.38 4388.47 4368.16 4241.29C4534.93 4094.11 4734.22 3988.98 4949.64 3934.55L4838 3494.16Z" stroke="#4A19D6" stroke-opacity="0.18" stroke-width="211.921" mask="url(#path-4-inside-4_193_96)"/>
<mask id="path-5-inside-5_193_96" fill="white">
<path d="M5942.97 6407.06C6097.19 6319.52 6230.99 6200.57 6335.61 6057.99C6440.23 5915.41 6513.3 5752.42 6550.05 5579.7C6586.79 5406.97 6586.38 5228.41 6548.84 5055.7C6511.3 4882.99 6437.47 4720.03 6332.2 4577.5C6226.92 4434.97 6092.57 4316.08 5937.95 4228.62C5783.33 4141.16 5611.92 4087.1 5434.95 4069.99C5257.99 4052.87 5079.45 4073.08 4911.05 4129.3C4742.64 4185.51 4588.16 4276.47 4457.73 4396.2L4666.33 4620.44C4765.03 4529.83 4881.93 4461.01 5009.37 4418.46C5136.81 4375.92 5271.91 4360.63 5405.83 4373.58C5539.74 4386.53 5669.45 4427.44 5786.46 4493.63C5903.47 4559.81 6005.14 4649.78 6084.8 4757.64C6164.47 4865.49 6220.33 4988.81 6248.74 5119.5C6277.15 5250.2 6277.46 5385.32 6249.66 5516.03C6221.85 5646.74 6166.55 5770.08 6087.39 5877.97C6008.22 5985.87 5906.97 6075.88 5790.26 6142.12L5942.97 6407.06Z"/>
</mask>
<path d="M5942.97 6407.06C6097.19 6319.52 6230.99 6200.57 6335.61 6057.99C6440.23 5915.41 6513.3 5752.42 6550.05 5579.7C6586.79 5406.97 6586.38 5228.41 6548.84 5055.7C6511.3 4882.99 6437.47 4720.03 6332.2 4577.5C6226.92 4434.97 6092.57 4316.08 5937.95 4228.62C5783.33 4141.16 5611.92 4087.1 5434.95 4069.99C5257.99 4052.87 5079.45 4073.08 4911.05 4129.3C4742.64 4185.51 4588.16 4276.47 4457.73 4396.2L4666.33 4620.44C4765.03 4529.83 4881.93 4461.01 5009.37 4418.46C5136.81 4375.92 5271.91 4360.63 5405.83 4373.58C5539.74 4386.53 5669.45 4427.44 5786.46 4493.63C5903.47 4559.81 6005.14 4649.78 6084.8 4757.64C6164.47 4865.49 6220.33 4988.81 6248.74 5119.5C6277.15 5250.2 6277.46 5385.32 6249.66 5516.03C6221.85 5646.74 6166.55 5770.08 6087.39 5877.97C6008.22 5985.87 5906.97 6075.88 5790.26 6142.12L5942.97 6407.06Z" stroke="#AE087F" stroke-width="381.457" mask="url(#path-5-inside-5_193_96)"/>
<mask id="path-6-inside-6_193_96" fill="white">
<path d="M6981.55 5374.32C6996.86 4995.83 6883.19 4624.24 6659.2 4320.56C6435.21 4016.88 6114.21 3799.16 5748.9 3703.15L5666.15 4011.29C5961.75 4088.98 6221.5 4265.15 6402.75 4510.89C6584 4756.62 6675.98 5057.3 6663.59 5363.57L6981.55 5374.32Z"/>
</mask>
<path d="M6981.55 5374.32C6996.86 4995.83 6883.19 4624.24 6659.2 4320.56C6435.21 4016.88 6114.21 3799.16 5748.9 3703.15L5666.15 4011.29C5961.75 4088.98 6221.5 4265.15 6402.75 4510.89C6584 4756.62 6675.98 5057.3 6663.59 5363.57L6981.55 5374.32Z" stroke="#450CE6" stroke-width="381.457" mask="url(#path-6-inside-6_193_96)"/>
<mask id="path-7-inside-7_193_96" fill="white">
<path d="M4199.41 5132.44C4155.57 5385.68 4199.11 5645.69 4322.87 5869.81C4446.62 6093.92 4643.25 6268.81 4880.46 6365.75L4963.81 6164.9C4772.07 6086.54 4613.13 5945.17 4513.1 5764.02C4413.06 5582.87 4377.87 5372.7 4413.3 5168.01L4199.41 5132.44Z"/>
</mask>
<path d="M4199.41 5132.44C4155.57 5385.68 4199.11 5645.69 4322.87 5869.81C4446.62 6093.92 4643.25 6268.81 4880.46 6365.75L4963.81 6164.9C4772.07 6086.54 4613.13 5945.17 4513.1 5764.02C4413.06 5582.87 4377.87 5372.7 4413.3 5168.01L4199.41 5132.44Z" stroke="#AE087F" stroke-width="296.689" mask="url(#path-7-inside-7_193_96)"/>
<mask id="path-8-inside-8_193_96" fill="white">
<path d="M5104.02 4510.84C4978.04 4542.67 4861.49 4604.15 4763.95 4690.23C4666.42 4776.3 4590.68 4884.51 4542.98 5005.95C4495.28 5127.4 4476.96 5258.6 4489.55 5388.79C4502.14 5518.97 4545.26 5644.41 4615.38 5754.79C4685.5 5865.17 4780.61 5957.33 4892.88 6023.71C5005.16 6090.08 5131.39 6128.77 5261.21 6136.58C5391.02 6144.4 5520.71 6121.12 5639.6 6068.67C5758.49 6016.21 5863.2 5936.07 5945.1 5834.85L5789.9 5707.66C5727.92 5784.26 5648.69 5844.91 5558.72 5884.6C5468.75 5924.3 5370.61 5941.91 5272.38 5936C5174.14 5930.08 5078.62 5900.81 4993.65 5850.58C4908.69 5800.35 4836.72 5730.6 4783.66 5647.08C4730.6 5563.55 4697.96 5468.63 4688.44 5370.11C4678.91 5271.6 4692.77 5172.31 4728.87 5080.41C4764.97 4988.51 4822.28 4906.62 4896.09 4841.49C4969.9 4776.35 5058.1 4729.83 5153.43 4705.74L5104.02 4510.84Z"/>
</mask>
<path d="M5104.02 4510.84C4978.04 4542.67 4861.49 4604.15 4763.95 4690.23C4666.42 4776.3 4590.68 4884.51 4542.98 5005.95C4495.28 5127.4 4476.96 5258.6 4489.55 5388.79C4502.14 5518.97 4545.26 5644.41 4615.38 5754.79C4685.5 5865.17 4780.61 5957.33 4892.88 6023.71C5005.16 6090.08 5131.39 6128.77 5261.21 6136.58C5391.02 6144.4 5520.71 6121.12 5639.6 6068.67C5758.49 6016.21 5863.2 5936.07 5945.1 5834.85L5789.9 5707.66C5727.92 5784.26 5648.69 5844.91 5558.72 5884.6C5468.75 5924.3 5370.61 5941.91 5272.38 5936C5174.14 5930.08 5078.62 5900.81 4993.65 5850.58C4908.69 5800.35 4836.72 5730.6 4783.66 5647.08C4730.6 5563.55 4697.96 5468.63 4688.44 5370.11C4678.91 5271.6 4692.77 5172.31 4728.87 5080.41C4764.97 4988.51 4822.28 4906.62 4896.09 4841.49C4969.9 4776.35 5058.1 4729.83 5153.43 4705.74L5104.02 4510.84Z" stroke="#450CE6" stroke-width="211.921" mask="url(#path-8-inside-8_193_96)"/>
<mask id="path-9-outside-9_193_96" maskUnits="userSpaceOnUse" x="1372.9" y="2039.03" width="4117" height="3533" fill="black">
<rect fill="white" x="1372.9" y="2039.03" width="4117" height="3533"/>
<path fill-rule="evenodd" clip-rule="evenodd" d="M2399.63 2914.73H2234.97V3175.76C2276.13 3213.81 2301.08 3238.45 2309.81 3249.68C2325.41 3269.64 2341.31 3300.51 2357.53 3342.3H2233.09C2233.09 3274.31 2213.76 3221.3 2175.09 3183.25C2137.04 3145.2 2084.02 3126.17 2016.03 3126.17C1944.92 3126.17 1878.5 3145.82 1816.74 3185.12C1757.49 3222.54 1709.77 3273.07 1673.6 3336.69C1639.29 3397.19 1622.14 3455.82 1622.14 3512.58C1622.14 3579.32 1646.15 3630.16 1694.18 3665.09C1736.59 3696.28 1792.42 3711.87 1861.65 3711.87C1977.05 3711.87 2057.51 3680.06 2103.04 3616.44H2302.33C2285.49 3683.8 2223.43 3740.56 2116.14 3786.72C2068.11 3807.3 2023.52 3817.59 1982.35 3817.59C1901.89 3817.59 1820.8 3794.83 1739.09 3749.29C1661.12 3706.26 1596.88 3651.06 1546.35 3583.69C1495.83 3515.7 1470.57 3448.65 1470.57 3382.53C1470.57 3332.63 1492.71 3276.18 1537 3213.19C1629.93 3080.95 1743.14 3014.84 1876.62 3014.84C1964.57 3014.84 2034.12 3033.24 2085.27 3070.04V2914.73H1424.72V2802.45H2399.63H2430.51H3380.16H3414.78H4181.05C4181.05 2673.34 4170.13 2572.29 4148.3 2499.31C4115.86 2390.78 4043.51 2261.67 3931.24 2111.97C3928.74 2110.72 3927.49 2105.73 3927.49 2097C3927.49 2089.51 3929.37 2084.52 3933.11 2082.03H4111.81C4272.74 2259.79 4353.2 2499.94 4353.2 2802.45H4448.63H4475.77H5446.93V2914.73H5191.51V3099.04C5220.83 3105.9 5242.03 3114.32 5255.13 3124.3V3234.71C5180.91 3209.13 5103.56 3196.35 5023.1 3196.35C4965.09 3196.35 4908.96 3206.01 4854.69 3225.35C4782.34 3250.92 4745.85 3287.41 4745.22 3334.82C4743.98 3384.72 4814.77 3409.67 4957.61 3409.67C4960.73 3409.67 4981 3408.73 5018.42 3406.86L5074.56 3404.05V3490.13C4989.73 3492.62 4936.71 3494.81 4915.5 3496.68C4766.43 3509.78 4691.89 3552.82 4691.89 3625.79C4691.89 3666.34 4717.78 3698.15 4769.55 3721.23C4810.09 3739.31 4853.75 3748.36 4900.53 3748.36C5103.25 3748.36 5267.3 3658.54 5392.67 3478.9V3715.61C5285.38 3783.6 5158.45 3817.59 5011.87 3817.59C4851.57 3817.59 4713.1 3780.48 4596.46 3706.26C4539.7 3670.08 4511.32 3628.6 4511.32 3581.82C4511.32 3536.29 4531.28 3496.68 4571.2 3463C4595.52 3442.41 4635.76 3418.71 4691.89 3391.89L4630.14 3356.34C4593.34 3335.13 4574.94 3306.75 4574.94 3271.19C4574.94 3193.85 4633.26 3138.34 4749.9 3104.66C4838.47 3079.08 4937.96 3066.3 5048.36 3066.3V2914.73H4475.77H4448.63H4353.2L4351.33 3828.82L4181.05 3755.84V3622.05C4080 3752.41 3980.82 3817.59 3883.52 3817.59C3821.77 3817.59 3754.41 3791.71 3681.43 3739.94C3619.05 3695.65 3567.28 3643.88 3526.11 3584.63C3477.46 3514.77 3453.45 3446.78 3454.07 3380.66C3454.7 3320.16 3488.07 3249.99 3554.18 3170.15C3628.41 3080.33 3717.92 3035.42 3822.71 3035.42C3889.45 3035.42 3956.5 3063.8 4023.86 3120.56C4044.45 3137.4 4096.84 3191.67 4181.05 3283.36V2914.73H3414.78H3380.16H3204.26V3172.02C3204.26 3177.63 3229.21 3205.39 3279.11 3255.29C3317.16 3301.45 3336.19 3367.56 3336.19 3453.64C3336.19 3596.48 3272.88 3702.2 3146.26 3770.81C3086.38 3803.25 3021.19 3819.47 2950.71 3819.47C2848.42 3819.47 2743 3774.24 2634.47 3683.8C2520.95 3588.99 2464.19 3486.07 2464.19 3375.05C2464.19 3323.9 2482.59 3270.88 2519.39 3215.99C2552.45 3166.72 2592.37 3125.86 2639.15 3093.43C2695.29 3054.76 2762.96 3035.42 2842.18 3035.42C2885.84 3035.42 2950.4 3046.96 3035.85 3070.04C3039.59 3070.04 3041.47 3067.54 3041.47 3062.55V2914.73H2430.51H2399.63ZM3198.65 3329.2C3198.65 3241.26 3159.98 3182.31 3082.63 3152.37C3053.94 3141.14 3029.3 3135.53 3008.72 3135.53C2931.38 3135.53 2848.11 3170.15 2758.91 3239.38C2654.74 3320.47 2602.66 3423.7 2602.66 3549.07C2602.66 3607.7 2636.34 3655.73 2703.71 3693.16C2734.27 3710 2765.15 3718.42 2796.33 3718.42C2873.68 3718.42 2958.51 3680.99 3050.82 3606.15C3149.37 3526.31 3198.65 3433.99 3198.65 3329.2ZM4136.14 3340.43C4136.14 3291.78 4109.63 3249.99 4056.61 3215.06C4009.2 3183.87 3959.93 3168.28 3908.78 3168.28C3871.36 3168.28 3824.58 3185.74 3768.44 3220.67C3646.19 3296.77 3585.06 3386.59 3585.06 3490.13C3585.06 3546.89 3600.34 3596.17 3630.9 3637.96C3664.59 3684.74 3708.56 3708.13 3762.83 3708.13C3818.96 3708.13 3878.84 3682.55 3942.46 3631.41C3986.75 3595.85 4027.92 3552.19 4065.97 3500.42C4112.75 3436.8 4136.14 3383.47 4136.14 3340.43ZM2239.84 4491.58V4376.62H2387.38V4491.58H2239.84ZM2211.1 4700.44C2188.1 4759.21 2083.35 4817.33 1896.85 4874.81C1760.17 4916.97 1691.18 4980.2 1689.91 5064.51C1688.63 5115.61 1703.32 5157.76 1733.98 5190.98C1765.91 5222.91 1807.43 5238.88 1858.53 5238.88C1882.8 5238.88 1908.35 5234.41 1935.17 5225.47C1898.13 5188.42 1879.6 5143.07 1879.6 5089.42C1879.6 5033.21 1899.4 4988.5 1939.01 4955.29C1974.77 4924.63 2021.4 4909.3 2078.88 4909.3C2129.98 4909.3 2169.58 4925.91 2197.68 4959.12C2225.79 4991.06 2239.84 5032.58 2239.84 5083.67C2239.84 5178.2 2205.35 5242.71 2136.37 5277.2C2156.81 5307.86 2190.66 5323.19 2237.92 5323.19C2248.14 5323.19 2259 5322.55 2270.5 5321.27L2138.28 5510.97C2105.07 5485.42 2081.44 5463.71 2067.39 5445.82C2063.55 5441.99 2043.12 5410.06 2006.07 5350.02C1947.31 5364.07 1890.46 5371.09 1835.53 5371.09C1721.84 5371.09 1623.48 5342.99 1540.45 5286.78C1474.02 5242.07 1435.7 5195.45 1425.48 5146.91C1419.09 5116.25 1415.9 5088.14 1415.9 5062.59C1415.9 4969.34 1456.14 4897.17 1536.62 4846.07C1585.16 4815.41 1665 4786.67 1776.13 4759.84C1878.33 4735.57 1939.01 4714.5 1958.17 4696.61C1986.27 4671.06 2000.32 4639.77 2000.32 4602.72C2000.32 4566.95 1987.55 4536.93 1962 4512.66C1937.73 4487.11 1908.35 4474.98 1873.86 4476.26C1854.69 4477.53 1837.45 4485.2 1822.12 4499.25C1808.07 4513.3 1801.04 4529.91 1801.04 4549.07C1801.04 4586.11 1824.68 4604.64 1871.94 4604.64C1880.88 4604.64 1890.46 4604 1900.68 4602.72L1839.37 4690.86C1820.2 4695.97 1799.13 4698.53 1776.13 4698.53C1725.04 4698.53 1675.22 4687.67 1626.67 4665.95C1565.36 4639.13 1534.7 4602.72 1534.7 4556.73C1534.7 4536.29 1541.73 4514.58 1555.78 4491.58H1419.73V4376.62H1590.27V4428.35C1652.86 4373.42 1763.36 4347.87 1921.76 4351.71C2128.7 4356.82 2232.17 4436.66 2232.17 4591.22C2232.17 4605.28 2231.54 4619.33 2230.26 4633.38H2379.72V4754.1H2211.1V4700.44ZM2561.95 5330.85V4376.62H2772.72V5330.85H2561.95ZM3483.24 5058.76C3465.35 4964.23 3451.3 4902.28 3441.08 4872.9C3415.53 4800.08 3378.49 4760.48 3329.94 4754.1C3291.62 4748.99 3261.6 4759.21 3239.89 4784.75C3219.45 4810.3 3209.23 4842.88 3209.23 4882.48C3209.23 4909.3 3213.7 4939.32 3222.64 4972.54L2937.13 4859.48C2953.74 4704.92 3076.37 4625.71 3305.03 4621.88C3388.07 4620.6 3455.77 4641.04 3508.15 4683.2C3551.58 4717.69 3603.95 4787.31 3665.27 4892.06V4491.58H2864.32V4376.62H4048.5V4491.58H3914.37V5330.85H3661.44V5093.25C3418.73 5304.03 3225.83 5409.42 3082.76 5409.42C3026.55 5409.42 2975.46 5394.73 2929.47 5365.35L2896.9 5183.31C2970.99 5229.3 3031.66 5252.29 3078.93 5252.29C3167.07 5252.29 3301.84 5187.78 3483.24 5058.76ZM2315.85 4022.13C2255.81 4022.13 2203.43 4031.07 2158.72 4048.96V4160.09C2179.16 4147.32 2202.16 4140.93 2227.7 4140.93C2278.8 4140.93 2330.54 4164.56 2382.91 4211.83L2528.54 4374.7H2815.96L2551.53 4104.52C2497.88 4049.59 2419.32 4022.13 2315.85 4022.13Z"/>
</mask>
<path fill-rule="evenodd" clip-rule="evenodd" d="M2399.63 2914.73H2234.97V3175.76C2276.13 3213.81 2301.08 3238.45 2309.81 3249.68C2325.41 3269.64 2341.31 3300.51 2357.53 3342.3H2233.09C2233.09 3274.31 2213.76 3221.3 2175.09 3183.25C2137.04 3145.2 2084.02 3126.17 2016.03 3126.17C1944.92 3126.17 1878.5 3145.82 1816.74 3185.12C1757.49 3222.54 1709.77 3273.07 1673.6 3336.69C1639.29 3397.19 1622.14 3455.82 1622.14 3512.58C1622.14 3579.32 1646.15 3630.16 1694.18 3665.09C1736.59 3696.28 1792.42 3711.87 1861.65 3711.87C1977.05 3711.87 2057.51 3680.06 2103.04 3616.44H2302.33C2285.49 3683.8 2223.43 3740.56 2116.14 3786.72C2068.11 3807.3 2023.52 3817.59 1982.35 3817.59C1901.89 3817.59 1820.8 3794.83 1739.09 3749.29C1661.12 3706.26 1596.88 3651.06 1546.35 3583.69C1495.83 3515.7 1470.57 3448.65 1470.57 3382.53C1470.57 3332.63 1492.71 3276.18 1537 3213.19C1629.93 3080.95 1743.14 3014.84 1876.62 3014.84C1964.57 3014.84 2034.12 3033.24 2085.27 3070.04V2914.73H1424.72V2802.45H2399.63H2430.51H3380.16H3414.78H4181.05C4181.05 2673.34 4170.13 2572.29 4148.3 2499.31C4115.86 2390.78 4043.51 2261.67 3931.24 2111.97C3928.74 2110.72 3927.49 2105.73 3927.49 2097C3927.49 2089.51 3929.37 2084.52 3933.11 2082.03H4111.81C4272.74 2259.79 4353.2 2499.94 4353.2 2802.45H4448.63H4475.77H5446.93V2914.73H5191.51V3099.04C5220.83 3105.9 5242.03 3114.32 5255.13 3124.3V3234.71C5180.91 3209.13 5103.56 3196.35 5023.1 3196.35C4965.09 3196.35 4908.96 3206.01 4854.69 3225.35C4782.34 3250.92 4745.85 3287.41 4745.22 3334.82C4743.98 3384.72 4814.77 3409.67 4957.61 3409.67C4960.73 3409.67 4981 3408.73 5018.42 3406.86L5074.56 3404.05V3490.13C4989.73 3492.62 4936.71 3494.81 4915.5 3496.68C4766.43 3509.78 4691.89 3552.82 4691.89 3625.79C4691.89 3666.34 4717.78 3698.15 4769.55 3721.23C4810.09 3739.31 4853.75 3748.36 4900.53 3748.36C5103.25 3748.36 5267.3 3658.54 5392.67 3478.9V3715.61C5285.38 3783.6 5158.45 3817.59 5011.87 3817.59C4851.57 3817.59 4713.1 3780.48 4596.46 3706.26C4539.7 3670.08 4511.32 3628.6 4511.32 3581.82C4511.32 3536.29 4531.28 3496.68 4571.2 3463C4595.52 3442.41 4635.76 3418.71 4691.89 3391.89L4630.14 3356.34C4593.34 3335.13 4574.94 3306.75 4574.94 3271.19C4574.94 3193.85 4633.26 3138.34 4749.9 3104.66C4838.47 3079.08 4937.96 3066.3 5048.36 3066.3V2914.73H4475.77H4448.63H4353.2L4351.33 3828.82L4181.05 3755.84V3622.05C4080 3752.41 3980.82 3817.59 3883.52 3817.59C3821.77 3817.59 3754.41 3791.71 3681.43 3739.94C3619.05 3695.65 3567.28 3643.88 3526.11 3584.63C3477.46 3514.77 3453.45 3446.78 3454.07 3380.66C3454.7 3320.16 3488.07 3249.99 3554.18 3170.15C3628.41 3080.33 3717.92 3035.42 3822.71 3035.42C3889.45 3035.42 3956.5 3063.8 4023.86 3120.56C4044.45 3137.4 4096.84 3191.67 4181.05 3283.36V2914.73H3414.78H3380.16H3204.26V3172.02C3204.26 3177.63 3229.21 3205.39 3279.11 3255.29C3317.16 3301.45 3336.19 3367.56 3336.19 3453.64C3336.19 3596.48 3272.88 3702.2 3146.26 3770.81C3086.38 3803.25 3021.19 3819.47 2950.71 3819.47C2848.42 3819.47 2743 3774.24 2634.47 3683.8C2520.95 3588.99 2464.19 3486.07 2464.19 3375.05C2464.19 3323.9 2482.59 3270.88 2519.39 3215.99C2552.45 3166.72 2592.37 3125.86 2639.15 3093.43C2695.29 3054.76 2762.96 3035.42 2842.18 3035.42C2885.84 3035.42 2950.4 3046.96 3035.85 3070.04C3039.59 3070.04 3041.47 3067.54 3041.47 3062.55V2914.73H2430.51H2399.63ZM3198.65 3329.2C3198.65 3241.26 3159.98 3182.31 3082.63 3152.37C3053.94 3141.14 3029.3 3135.53 3008.72 3135.53C2931.38 3135.53 2848.11 3170.15 2758.91 3239.38C2654.74 3320.47 2602.66 3423.7 2602.66 3549.07C2602.66 3607.7 2636.34 3655.73 2703.71 3693.16C2734.27 3710 2765.15 3718.42 2796.33 3718.42C2873.68 3718.42 2958.51 3680.99 3050.82 3606.15C3149.37 3526.31 3198.65 3433.99 3198.65 3329.2ZM4136.14 3340.43C4136.14 3291.78 4109.63 3249.99 4056.61 3215.06C4009.2 3183.87 3959.93 3168.28 3908.78 3168.28C3871.36 3168.28 3824.58 3185.74 3768.44 3220.67C3646.19 3296.77 3585.06 3386.59 3585.06 3490.13C3585.06 3546.89 3600.34 3596.17 3630.9 3637.96C3664.59 3684.74 3708.56 3708.13 3762.83 3708.13C3818.96 3708.13 3878.84 3682.55 3942.46 3631.41C3986.75 3595.85 4027.92 3552.19 4065.97 3500.42C4112.75 3436.8 4136.14 3383.47 4136.14 3340.43ZM2239.84 4491.58V4376.62H2387.38V4491.58H2239.84ZM2211.1 4700.44C2188.1 4759.21 2083.35 4817.33 1896.85 4874.81C1760.17 4916.97 1691.18 4980.2 1689.91 5064.51C1688.63 5115.61 1703.32 5157.76 1733.98 5190.98C1765.91 5222.91 1807.43 5238.88 1858.53 5238.88C1882.8 5238.88 1908.35 5234.41 1935.17 5225.47C1898.13 5188.42 1879.6 5143.07 1879.6 5089.42C1879.6 5033.21 1899.4 4988.5 1939.01 4955.29C1974.77 4924.63 2021.4 4909.3 2078.88 4909.3C2129.98 4909.3 2169.58 4925.91 2197.68 4959.12C2225.79 4991.06 2239.84 5032.58 2239.84 5083.67C2239.84 5178.2 2205.35 5242.71 2136.37 5277.2C2156.81 5307.86 2190.66 5323.19 2237.92 5323.19C2248.14 5323.19 2259 5322.55 2270.5 5321.27L2138.28 5510.97C2105.07 5485.42 2081.44 5463.71 2067.39 5445.82C2063.55 5441.99 2043.12 5410.06 2006.07 5350.02C1947.31 5364.07 1890.46 5371.09 1835.53 5371.09C1721.84 5371.09 1623.48 5342.99 1540.45 5286.78C1474.02 5242.07 1435.7 5195.45 1425.48 5146.91C1419.09 5116.25 1415.9 5088.14 1415.9 5062.59C1415.9 4969.34 1456.14 4897.17 1536.62 4846.07C1585.16 4815.41 1665 4786.67 1776.13 4759.84C1878.33 4735.57 1939.01 4714.5 1958.17 4696.61C1986.27 4671.06 2000.32 4639.77 2000.32 4602.72C2000.32 4566.95 1987.55 4536.93 1962 4512.66C1937.73 4487.11 1908.35 4474.98 1873.86 4476.26C1854.69 4477.53 1837.45 4485.2 1822.12 4499.25C1808.07 4513.3 1801.04 4529.91 1801.04 4549.07C1801.04 4586.11 1824.68 4604.64 1871.94 4604.64C1880.88 4604.64 1890.46 4604 1900.68 4602.72L1839.37 4690.86C1820.2 4695.97 1799.13 4698.53 1776.13 4698.53C1725.04 4698.53 1675.22 4687.67 1626.67 4665.95C1565.36 4639.13 1534.7 4602.72 1534.7 4556.73C1534.7 4536.29 1541.73 4514.58 1555.78 4491.58H1419.73V4376.62H1590.27V4428.35C1652.86 4373.42 1763.36 4347.87 1921.76 4351.71C2128.7 4356.82 2232.17 4436.66 2232.17 4591.22C2232.17 4605.28 2231.54 4619.33 2230.26 4633.38H2379.72V4754.1H2211.1V4700.44ZM2561.95 5330.85V4376.62H2772.72V5330.85H2561.95ZM3483.24 5058.76C3465.35 4964.23 3451.3 4902.28 3441.08 4872.9C3415.53 4800.08 3378.49 4760.48 3329.94 4754.1C3291.62 4748.99 3261.6 4759.21 3239.89 4784.75C3219.45 4810.3 3209.23 4842.88 3209.23 4882.48C3209.23 4909.3 3213.7 4939.32 3222.64 4972.54L2937.13 4859.48C2953.74 4704.92 3076.37 4625.71 3305.03 4621.88C3388.07 4620.6 3455.77 4641.04 3508.15 4683.2C3551.58 4717.69 3603.95 4787.31 3665.27 4892.06V4491.58H2864.32V4376.62H4048.5V4491.58H3914.37V5330.85H3661.44V5093.25C3418.73 5304.03 3225.83 5409.42 3082.76 5409.42C3026.55 5409.42 2975.46 5394.73 2929.47 5365.35L2896.9 5183.31C2970.99 5229.3 3031.66 5252.29 3078.93 5252.29C3167.07 5252.29 3301.84 5187.78 3483.24 5058.76ZM2315.85 4022.13C2255.81 4022.13 2203.43 4031.07 2158.72 4048.96V4160.09C2179.16 4147.32 2202.16 4140.93 2227.7 4140.93C2278.8 4140.93 2330.54 4164.56 2382.91 4211.83L2528.54 4374.7H2815.96L2551.53 4104.52C2497.88 4049.59 2419.32 4022.13 2315.85 4022.13Z" fill="url(#paint0_linear_193_96)"/>
<path d="M2234.97 2914.73V2872.34H2192.58V2914.73H2234.97ZM2234.97 3175.76H2192.58V3194.3L2206.2 3206.89L2234.97 3175.76ZM2309.81 3249.68L2276.36 3275.7L2276.39 3275.73L2276.41 3275.77L2309.81 3249.68ZM2357.53 3342.3V3384.69H2419.44L2397.04 3326.97L2357.53 3342.3ZM2233.09 3342.3H2190.71V3384.69H2233.09V3342.3ZM2175.09 3183.25L2145.12 3213.22L2145.24 3213.34L2145.36 3213.46L2175.09 3183.25ZM1816.74 3185.12L1839.38 3220.95L1839.44 3220.92L1839.5 3220.88L1816.74 3185.12ZM1673.6 3336.69L1636.75 3315.74L1636.74 3315.76L1636.73 3315.78L1673.6 3336.69ZM1694.18 3665.09L1719.29 3630.94L1719.2 3630.88L1719.11 3630.81L1694.18 3665.09ZM2103.04 3616.44V3574.05H2081.26L2068.58 3591.77L2103.04 3616.44ZM2302.33 3616.44L2343.45 3626.72L2356.61 3574.05H2302.33V3616.44ZM2116.14 3786.72L2132.84 3825.68L2132.87 3825.66L2132.89 3825.65L2116.14 3786.72ZM1739.09 3749.29L1759.72 3712.27L1759.65 3712.23L1759.57 3712.19L1739.09 3749.29ZM1546.35 3583.69L1512.33 3608.97L1512.39 3609.05L1512.44 3609.12L1546.35 3583.69ZM1537 3213.19L1571.67 3237.56L1571.67 3237.56L1537 3213.19ZM2085.27 3070.04L2060.51 3104.44L2127.65 3152.75V3070.04H2085.27ZM2085.27 2914.73H2127.65V2872.34H2085.27V2914.73ZM1424.72 2914.73H1382.34V2957.11H1424.72V2914.73ZM1424.72 2802.45V2760.07H1382.34V2802.45H1424.72ZM4181.05 2802.45V2844.84H4223.43V2802.45H4181.05ZM4148.3 2499.31L4107.69 2511.45L4107.69 2511.46L4148.3 2499.31ZM3931.24 2111.97L3965.14 2086.54L3959.14 2078.53L3950.19 2074.06L3931.24 2111.97ZM3933.11 2082.03V2039.64H3920.27L3909.6 2046.76L3933.11 2082.03ZM4111.81 2082.03L4143.23 2053.58L4130.61 2039.64H4111.81V2082.03ZM4353.2 2802.45H4310.82V2844.84H4353.2V2802.45ZM5446.93 2802.45H5489.32V2760.07H5446.93V2802.45ZM5446.93 2914.73V2957.11H5489.32V2914.73H5446.93ZM5191.51 2914.73V2872.34H5149.13V2914.73H5191.51ZM5191.51 3099.04H5149.13V3132.65L5181.85 3140.31L5191.51 3099.04ZM5255.13 3124.3H5297.52V3103.31L5280.82 3090.59L5255.13 3124.3ZM5255.13 3234.71L5241.33 3274.78L5297.52 3294.14V3234.71H5255.13ZM4854.69 3225.35L4868.81 3265.31L4868.86 3265.29L4868.92 3265.28L4854.69 3225.35ZM4745.22 3334.82L4787.59 3335.88L4787.6 3335.63L4787.6 3335.37L4745.22 3334.82ZM5018.42 3406.86L5016.31 3364.53L5018.42 3406.86ZM5074.56 3404.05H5116.94V3359.5L5072.44 3361.72L5074.56 3404.05ZM5074.56 3490.13L5075.81 3532.49L5116.94 3531.29V3490.13H5074.56ZM4915.5 3496.68L4919.21 3538.9L4919.22 3538.9L4919.23 3538.9L4915.5 3496.68ZM4769.55 3721.23L4786.82 3682.52L4786.81 3682.51L4769.55 3721.23ZM5392.67 3478.9H5435.05V3344.11L5357.91 3454.64L5392.67 3478.9ZM5392.67 3715.61L5415.36 3751.41L5435.05 3738.93V3715.61H5392.67ZM4596.46 3706.26L4573.68 3742L4573.69 3742.01L4573.7 3742.01L4596.46 3706.26ZM4571.2 3463L4598.53 3495.39L4598.55 3495.37L4598.58 3495.35L4571.2 3463ZM4691.89 3391.89L4710.16 3430.13L4782.9 3395.38L4713.04 3355.16L4691.89 3391.89ZM4630.14 3356.34L4608.98 3393.06L4608.99 3393.06L4608.99 3393.07L4630.14 3356.34ZM4749.9 3104.66L4738.14 3063.93L4738.14 3063.94L4749.9 3104.66ZM5048.36 3066.3V3108.68H5090.75V3066.3H5048.36ZM5048.36 2914.73H5090.75V2872.34H5048.36V2914.73ZM4353.2 2914.73V2872.34H4310.9L4310.82 2914.64L4353.2 2914.73ZM4351.33 3828.82L4334.63 3867.78L4393.58 3893.04L4393.71 3828.91L4351.33 3828.82ZM4181.05 3755.84H4138.66V3783.79L4164.35 3794.8L4181.05 3755.84ZM4181.05 3622.05H4223.43V3498.19L4147.55 3596.09L4181.05 3622.05ZM3681.43 3739.94L3656.89 3774.5L3656.9 3774.5L3656.9 3774.51L3681.43 3739.94ZM3526.11 3584.63L3560.92 3560.44L3560.91 3560.42L3560.9 3560.4L3526.11 3584.63ZM3454.07 3380.66L3411.69 3380.22L3411.69 3380.24L3411.69 3380.26L3454.07 3380.66ZM3554.18 3170.15L3586.83 3197.18L3586.84 3197.16L3586.86 3197.15L3554.18 3170.15ZM4023.86 3120.56L3996.55 3152.97L3996.79 3153.17L3997.02 3153.36L4023.86 3120.56ZM4181.05 3283.36L4149.83 3312.03L4223.43 3392.17V3283.36H4181.05ZM4181.05 2914.73H4223.43V2872.34H4181.05V2914.73ZM3204.26 2914.73V2872.34H3161.88V2914.73H3204.26ZM3279.11 3255.29L3311.82 3228.33L3310.52 3226.76L3309.08 3225.32L3279.11 3255.29ZM3146.26 3770.81L3166.44 3808.08L3166.45 3808.08L3146.26 3770.81ZM2634.47 3683.8L2607.3 3716.33L2607.32 3716.35L2607.34 3716.36L2634.47 3683.8ZM2519.39 3215.99L2484.2 3192.38L2484.19 3192.39L2519.39 3215.99ZM2639.15 3093.43L2615.11 3058.52L2615.05 3058.56L2615 3058.6L2639.15 3093.43ZM3035.85 3070.04L3024.8 3110.96L3030.23 3112.42H3035.85V3070.04ZM3041.47 2914.73H3083.85V2872.34H3041.47V2914.73ZM3082.63 3152.37L3067.19 3191.84L3067.26 3191.87L3067.33 3191.9L3082.63 3152.37ZM2758.91 3239.38L2732.92 3205.9L2732.9 3205.92L2732.88 3205.94L2758.91 3239.38ZM2703.71 3693.16L2683.13 3730.21L2683.19 3730.24L2683.25 3730.28L2703.71 3693.16ZM3050.82 3606.15L3024.14 3573.21L3024.14 3573.22L3024.13 3573.22L3050.82 3606.15ZM4056.61 3215.06L4079.93 3179.66L4079.92 3179.66L4079.9 3179.65L4056.61 3215.06ZM3768.44 3220.67L3746.05 3184.69L3746.04 3184.69L3768.44 3220.67ZM3630.9 3637.96L3665.3 3613.19L3665.21 3613.06L3665.12 3612.94L3630.9 3637.96ZM3942.46 3631.41L3915.93 3598.36L3915.92 3598.37L3915.91 3598.37L3942.46 3631.41ZM4065.97 3500.42L4031.82 3475.31L4031.81 3475.32L4065.97 3500.42ZM2239.84 4376.62V4334.23H2197.46V4376.62H2239.84ZM2239.84 4491.58H2197.46V4533.97H2239.84V4491.58ZM2387.38 4376.62H2429.77V4334.23H2387.38V4376.62ZM2387.38 4491.58V4533.97H2429.77V4491.58H2387.38ZM1896.85 4874.81L1884.37 4834.31L1884.36 4834.31L1896.85 4874.81ZM2211.1 4700.44H2253.48L2171.63 4685L2211.1 4700.44ZM1689.91 5064.51L1732.28 5065.57L1732.28 5065.36L1732.29 5065.15L1689.91 5064.51ZM1733.98 5190.98L1702.83 5219.72L1703.41 5220.35L1704.01 5220.95L1733.98 5190.98ZM1935.17 5225.47L1948.58 5265.68L2013.64 5243.99L1965.14 5195.5L1935.17 5225.47ZM1939.01 4955.29L1966.24 4987.77L1966.42 4987.62L1966.59 4987.47L1939.01 4955.29ZM2197.68 4959.12L2165.33 4986.5L2165.59 4986.81L2165.87 4987.12L2197.68 4959.12ZM2136.37 5277.2L2117.41 5239.29L2074.47 5260.77L2101.1 5300.71L2136.37 5277.2ZM2270.5 5321.27L2305.27 5345.51L2358.72 5268.83L2265.82 5279.15L2270.5 5321.27ZM2138.28 5510.97L2112.44 5544.57L2147.65 5571.65L2173.06 5535.21L2138.28 5510.97ZM2067.39 5445.82L2100.71 5419.64L2099.15 5417.64L2097.36 5415.85L2067.39 5445.82ZM2006.07 5350.02L2042.14 5327.76L2026.04 5301.66L1996.21 5308.79L2006.07 5350.02ZM1540.45 5286.78L1564.21 5251.68L1564.16 5251.65L1564.11 5251.62L1540.45 5286.78ZM1425.48 5146.91L1383.99 5155.55L1383.99 5155.59L1384 5155.64L1425.48 5146.91ZM1536.62 4846.07L1513.98 4810.24L1513.94 4810.26L1513.9 4810.29L1536.62 4846.07ZM1776.13 4759.84L1766.34 4718.61L1766.26 4718.63L1766.19 4718.64L1776.13 4759.84ZM1958.17 4696.61L1929.66 4665.25L1929.45 4665.44L1929.25 4665.63L1958.17 4696.61ZM1962 4512.66L1931.27 4541.85L1932.02 4542.64L1932.81 4543.39L1962 4512.66ZM1873.86 4476.26L1872.29 4433.9L1871.66 4433.92L1871.04 4433.97L1873.86 4476.26ZM1822.12 4499.25L1793.48 4468.01L1792.8 4468.63L1792.15 4469.28L1822.12 4499.25ZM1900.68 4602.72L1935.48 4626.93L1989.78 4548.87L1895.42 4560.66L1900.68 4602.72ZM1839.37 4690.86L1850.29 4731.82L1865.29 4727.82L1874.16 4715.07L1839.37 4690.86ZM1626.67 4665.95L1643.98 4627.26L1643.82 4627.19L1643.66 4627.12L1626.67 4665.95ZM1555.78 4491.58L1591.94 4513.69L1631.35 4449.2H1555.78V4491.58ZM1419.73 4491.58H1377.35V4533.97H1419.73V4491.58ZM1419.73 4376.62V4334.23H1377.35V4376.62H1419.73ZM1590.27 4376.62H1632.65V4334.23H1590.27V4376.62ZM1590.27 4428.35H1547.88V4521.94L1618.22 4460.21L1590.27 4428.35ZM1921.76 4351.71L1922.81 4309.34L1922.8 4309.33L1922.78 4309.33L1921.76 4351.71ZM2230.26 4633.38L2188.05 4629.54L2183.85 4675.76H2230.26V4633.38ZM2379.72 4633.38H2422.1V4591H2379.72V4633.38ZM2379.72 4754.1V4796.48H2422.1V4754.1H2379.72ZM2211.1 4754.1H2168.71V4796.48H2211.1V4754.1ZM2561.95 4376.62V4334.23H2519.56V4376.62H2561.95ZM2561.95 5330.85H2519.56V5373.24H2561.95V5330.85ZM2772.72 4376.62H2815.11V4334.23H2772.72V4376.62ZM2772.72 5330.85V5373.24H2815.11V5330.85H2772.72ZM3441.08 4872.9L3481.11 4858.97L3481.09 4858.92L3481.07 4858.86L3441.08 4872.9ZM3483.24 5058.76L3507.8 5093.3L3529.93 5077.56L3524.88 5050.88L3483.24 5058.76ZM3329.94 4754.1L3324.34 4796.11L3324.38 4796.11L3324.41 4796.12L3329.94 4754.1ZM3239.89 4784.75L3207.59 4757.3L3207.18 4757.78L3206.79 4758.28L3239.89 4784.75ZM3222.64 4972.54L3207.04 5011.94L3285.51 5043.02L3263.57 4961.52L3222.64 4972.54ZM2937.13 4859.48L2894.99 4854.96L2891.55 4887.02L2921.53 4898.89L2937.13 4859.48ZM3305.03 4621.88L3304.38 4579.5L3304.35 4579.5L3304.32 4579.5L3305.03 4621.88ZM3508.15 4683.2L3481.57 4716.22L3481.68 4716.3L3481.79 4716.39L3508.15 4683.2ZM3665.27 4892.06L3628.69 4913.47L3707.65 5048.36V4892.06H3665.27ZM3665.27 4491.58H3707.65V4449.2H3665.27V4491.58ZM2864.32 4491.58H2821.94V4533.97H2864.32V4491.58ZM2864.32 4376.62V4334.23H2821.94V4376.62H2864.32ZM4048.5 4376.62H4090.88V4334.23H4048.5V4376.62ZM4048.5 4491.58V4533.97H4090.88V4491.58H4048.5ZM3914.37 4491.58V4449.2H3871.98V4491.58H3914.37ZM3914.37 5330.85V5373.24H3956.75V5330.85H3914.37ZM3661.44 5330.85H3619.05V5373.24H3661.44V5330.85ZM3661.44 5093.25H3703.82V5000.31L3633.65 5061.25L3661.44 5093.25ZM2929.47 5365.35L2887.75 5372.81L2891.02 5391.07L2906.65 5401.06L2929.47 5365.35ZM2896.9 5183.31L2919.25 5147.3L2838.42 5097.13L2855.17 5190.78L2896.9 5183.31ZM2158.72 4048.96L2142.98 4009.6L2116.34 4020.26V4048.96H2158.72ZM2158.72 4160.09H2116.34V4236.56L2181.19 4196.03L2158.72 4160.09ZM2382.91 4211.83L2414.51 4183.58L2412.99 4181.88L2411.31 4180.36L2382.91 4211.83ZM2528.54 4374.7L2496.94 4402.95L2509.58 4417.08H2528.54V4374.7ZM2815.96 4374.7V4417.08H2916.75L2846.25 4345.05L2815.96 4374.7ZM2551.53 4104.52L2521.21 4134.14L2521.23 4134.16L2521.24 4134.17L2551.53 4104.52ZM2234.97 2957.11H2399.63V2872.34H2234.97V2957.11ZM2277.35 3175.76V2914.73H2192.58V3175.76H2277.35ZM2343.27 3223.65C2331.92 3209.07 2303.96 3181.82 2263.73 3144.64L2206.2 3206.89C2248.3 3245.8 2270.24 3267.83 2276.36 3275.7L2343.27 3223.65ZM2397.04 3326.97C2380.29 3283.8 2362.6 3248.4 2343.21 3223.58L2276.41 3275.77C2288.21 3290.87 2302.34 3317.23 2318.02 3357.64L2397.04 3326.97ZM2233.09 3384.69H2357.53V3299.92H2233.09V3384.69ZM2145.36 3213.46C2174 3241.63 2190.71 3282.63 2190.71 3342.3H2275.48C2275.48 3266 2253.52 3200.96 2204.81 3153.03L2145.36 3213.46ZM2016.03 3168.56C2075.9 3168.56 2116.98 3185.08 2145.12 3213.22L2205.06 3153.28C2157.1 3105.32 2092.14 3083.79 2016.03 3083.79V3168.56ZM1839.5 3220.88C1894.66 3185.77 1953.23 3168.56 2016.03 3168.56V3083.79C1936.62 3083.79 1862.33 3105.87 1793.99 3149.36L1839.5 3220.88ZM1710.44 3357.64C1743.33 3299.79 1786.27 3254.49 1839.38 3220.95L1794.11 3149.28C1728.7 3190.59 1676.21 3246.34 1636.75 3315.74L1710.44 3357.64ZM1664.52 3512.58C1664.52 3464.63 1678.97 3413.15 1710.47 3357.59L1636.73 3315.78C1599.61 3381.23 1579.75 3447.01 1579.75 3512.58H1664.52ZM1719.11 3630.81C1683.52 3604.93 1664.52 3567.7 1664.52 3512.58H1579.75C1579.75 3590.95 1608.78 3655.39 1669.25 3699.37L1719.11 3630.81ZM1861.65 3669.49C1798.62 3669.49 1752.43 3655.31 1719.29 3630.94L1669.07 3699.24C1720.76 3737.24 1786.22 3754.25 1861.65 3754.25V3669.49ZM2068.58 3591.77C2034.28 3639.69 1970.21 3669.49 1861.65 3669.49V3754.25C1983.89 3754.25 2080.74 3720.43 2137.51 3641.1L2068.58 3591.77ZM2302.33 3574.05H2103.04V3658.82H2302.33V3574.05ZM2132.89 3825.65C2244.17 3777.78 2321.73 3713.59 2343.45 3626.72L2261.21 3606.16C2249.25 3654.02 2202.68 3703.35 2099.39 3747.79L2132.89 3825.65ZM1982.35 3859.98C2030.58 3859.98 2080.9 3847.93 2132.84 3825.68L2099.45 3747.76C2055.33 3766.67 2016.45 3775.21 1982.35 3775.21V3859.98ZM1718.46 3786.32C1805.44 3834.79 1893.57 3859.98 1982.35 3859.98V3775.21C1910.2 3775.21 1836.16 3754.86 1759.72 3712.27L1718.46 3786.32ZM1512.44 3609.12C1566.77 3681.56 1635.7 3740.63 1718.61 3786.4L1759.57 3712.19C1686.55 3671.88 1626.98 3620.55 1580.26 3558.26L1512.44 3609.12ZM1428.18 3382.53C1428.18 3460.03 1457.91 3535.74 1512.33 3608.97L1580.37 3558.41C1533.74 3495.66 1512.95 3437.27 1512.95 3382.53H1428.18ZM1502.32 3188.81C1455.56 3255.33 1428.18 3320.34 1428.18 3382.53H1512.95C1512.95 3344.93 1529.86 3297.04 1571.67 3237.56L1502.32 3188.81ZM1876.62 2972.45C1726.34 2972.45 1601.3 3047.99 1502.32 3188.82L1571.67 3237.56C1658.57 3113.92 1759.95 3057.22 1876.62 3057.22V2972.45ZM2110.02 3035.63C2049.31 2991.95 1970.04 2972.45 1876.62 2972.45V3057.22C1959.11 3057.22 2018.93 3074.52 2060.51 3104.44L2110.02 3035.63ZM2042.88 2914.73V3070.04H2127.65V2914.73H2042.88ZM1424.72 2957.11H2085.27V2872.34H1424.72V2957.11ZM1382.34 2802.45V2914.73H1467.11V2802.45H1382.34ZM2399.63 2760.07H1424.72V2844.84H2399.63V2760.07ZM2430.51 2760.07H2399.63V2844.84H2430.51V2760.07ZM3380.16 2760.07H2430.51V2844.84H3380.16V2760.07ZM3414.78 2760.07H3380.16V2844.84H3414.78V2760.07ZM4181.05 2760.07H3414.78V2844.84H4181.05V2760.07ZM4107.69 2511.46C4127.81 2578.7 4138.66 2675.02 4138.66 2802.45H4223.43C4223.43 2671.65 4212.45 2565.88 4188.91 2487.16L4107.69 2511.46ZM3897.33 2137.4C4008.3 2285.35 4077.32 2409.82 4107.69 2511.45L4188.91 2487.18C4154.41 2371.74 4078.72 2237.98 3965.14 2086.54L3897.33 2137.4ZM3885.11 2097C3885.11 2102.78 3885.46 2110.18 3887.31 2117.57C3888.59 2122.7 3893.55 2140.51 3912.28 2149.88L3950.19 2074.06C3958.67 2078.29 3963.5 2084.46 3965.94 2088.52C3968.31 2092.47 3969.23 2095.74 3969.55 2097.01C3970.15 2099.41 3969.88 2099.94 3969.88 2097H3885.11ZM3909.6 2046.76C3887.89 2061.24 3885.11 2084.87 3885.11 2097H3969.88C3969.88 2096.44 3970 2098.76 3968.58 2102.52C3966.99 2106.77 3963.43 2112.75 3956.62 2117.29L3909.6 2046.76ZM4111.81 2039.64H3933.11V2124.41H4111.81V2039.64ZM4395.58 2802.45C4395.58 2492.28 4312.92 2241.03 4143.23 2053.58L4080.39 2110.47C4232.55 2278.56 4310.82 2507.6 4310.82 2802.45H4395.58ZM4448.63 2760.07H4353.2V2844.84H4448.63V2760.07ZM4475.77 2760.07H4448.63V2844.84H4475.77V2760.07ZM5446.93 2760.07H4475.77V2844.84H5446.93V2760.07ZM5489.32 2914.73V2802.45H5404.55V2914.73H5489.32ZM5191.51 2957.11H5446.93V2872.34H5191.51V2957.11ZM5233.9 3099.04V2914.73H5149.13V3099.04H5233.9ZM5280.82 3090.59C5260.52 3075.12 5232.27 3065.05 5201.17 3057.77L5181.85 3140.31C5209.38 3146.75 5223.55 3153.52 5229.45 3158.02L5280.82 3090.59ZM5297.52 3234.71V3124.3H5212.75V3234.71H5297.52ZM5023.1 3238.73C5098.98 3238.73 5171.65 3250.77 5241.33 3274.78L5268.94 3194.63C5190.16 3167.49 5108.14 3153.96 5023.1 3153.96V3238.73ZM4868.92 3265.28C4918.58 3247.58 4969.91 3238.73 5023.1 3238.73V3153.96C4960.28 3153.96 4899.33 3164.45 4840.46 3185.42L4868.92 3265.28ZM4787.6 3335.37C4787.86 3315.61 4801.4 3289.14 4868.81 3265.31L4840.57 3185.39C4763.27 3212.71 4703.83 3259.21 4702.84 3334.26L4787.6 3335.37ZM4957.61 3367.28C4887.47 3367.28 4839.92 3361 4811.47 3350.98C4797.43 3346.03 4791.19 3341.24 4788.84 3338.71C4787.49 3337.25 4787.57 3337 4787.59 3335.88L4702.85 3333.76C4702.26 3357.58 4710.71 3379.16 4726.75 3396.41C4741.79 3412.6 4761.94 3423.4 4783.3 3430.93C4825.64 3445.85 4884.91 3452.05 4957.61 3452.05V3367.28ZM5016.31 3364.53C4997.61 3365.46 4983.25 3366.16 4973.2 3366.63C4968.16 3366.86 4964.27 3367.03 4961.47 3367.14C4958.27 3367.27 4957.36 3367.28 4957.61 3367.28V3452.05C4962.12 3452.05 4984.11 3451.01 5020.54 3449.19L5016.31 3364.53ZM5072.44 3361.72L5016.31 3364.53L5020.54 3449.19L5076.68 3446.38L5072.44 3361.72ZM5116.94 3490.13V3404.05H5032.18V3490.13H5116.94ZM4919.23 3538.9C4938.92 3537.16 4990.51 3535 5075.81 3532.49L5073.31 3447.76C4988.95 3450.24 4934.5 3452.45 4911.78 3454.46L4919.23 3538.9ZM4734.28 3625.79C4734.28 3607.42 4742.04 3591.05 4768.99 3575.49C4798.32 3558.55 4846.94 3545.25 4919.21 3538.9L4911.79 3454.46C4835 3461.2 4771.81 3475.97 4726.6 3502.08C4679.01 3529.55 4649.51 3571.19 4649.51 3625.79H4734.28ZM4786.81 3682.51C4743.18 3663.07 4734.28 3642.98 4734.28 3625.79H4649.51C4649.51 3689.69 4692.38 3733.23 4752.29 3759.94L4786.81 3682.51ZM4900.53 3705.97C4859.38 3705.97 4821.64 3698.05 4786.82 3682.52L4752.28 3759.93C4798.55 3780.58 4848.13 3790.74 4900.53 3790.74V3705.97ZM5357.91 3454.64C5239.72 3624 5088.14 3705.97 4900.53 3705.97V3790.74C5118.37 3790.74 5294.88 3693.08 5427.43 3503.16L5357.91 3454.64ZM5435.05 3715.61V3478.9H5350.28V3715.61H5435.05ZM5011.87 3859.98C5165.22 3859.98 5300.29 3824.33 5415.36 3751.41L5369.98 3679.81C5270.48 3742.87 5151.68 3775.21 5011.87 3775.21V3859.98ZM4573.7 3742.01C4698.17 3821.22 4844.82 3859.98 5011.87 3859.98V3775.21C4858.32 3775.21 4728.03 3739.74 4619.21 3670.5L4573.7 3742.01ZM4468.93 3581.82C4468.93 3648.84 4510.52 3701.75 4573.68 3742L4619.24 3670.51C4568.87 3638.41 4553.7 3608.36 4553.7 3581.82H4468.93ZM4543.87 3430.6C4495.97 3471.02 4468.93 3521.88 4468.93 3581.82H4553.7C4553.7 3550.69 4566.59 3522.34 4598.53 3495.39L4543.87 3430.6ZM4673.62 3353.65C4616.69 3380.85 4572.43 3406.43 4543.82 3430.64L4598.58 3495.35C4618.61 3478.4 4654.82 3456.57 4710.16 3430.13L4673.62 3353.65ZM4608.99 3393.07L4670.74 3428.62L4713.04 3355.16L4651.29 3319.6L4608.99 3393.07ZM4532.56 3271.19C4532.56 3325.1 4562.07 3366.03 4608.98 3393.06L4651.3 3319.61C4624.61 3304.23 4617.32 3288.4 4617.32 3271.19H4532.56ZM4738.14 3063.94C4676.32 3081.79 4625.42 3106.62 4589.46 3140.85C4552.28 3176.24 4532.56 3220.39 4532.56 3271.19H4617.32C4617.32 3244.65 4626.76 3222.38 4647.9 3202.25C4670.26 3180.97 4706.84 3161.21 4761.66 3145.38L4738.14 3063.94ZM5048.36 3023.91C4934.74 3023.91 4831.2 3037.07 4738.14 3063.93L4761.66 3145.38C4845.74 3121.1 4941.18 3108.68 5048.36 3108.68V3023.91ZM5005.98 2914.73V3066.3H5090.75V2914.73H5005.98ZM4475.77 2957.11H5048.36V2872.34H4475.77V2957.11ZM4448.63 2957.11H4475.77V2872.34H4448.63V2957.11ZM4353.2 2957.11H4448.63V2872.34H4353.2V2957.11ZM4393.71 3828.91L4395.58 2914.81L4310.82 2914.64L4308.94 3828.74L4393.71 3828.91ZM4164.35 3794.8L4334.63 3867.78L4368.02 3789.86L4197.74 3716.89L4164.35 3794.8ZM4138.66 3622.05V3755.84H4223.43V3622.05H4138.66ZM3883.52 3859.98C4000.81 3859.98 4110.93 3781.7 4214.55 3648.02L4147.55 3596.09C4049.07 3723.13 3960.84 3775.21 3883.52 3775.21V3859.98ZM3656.9 3774.51C3733.97 3829.18 3809.84 3859.98 3883.52 3859.98V3775.21C3833.7 3775.21 3774.84 3754.24 3705.95 3705.37L3656.9 3774.51ZM3491.31 3608.81C3535.44 3672.33 3590.76 3727.55 3656.89 3774.5L3705.96 3705.38C3647.35 3663.76 3599.13 3615.44 3560.92 3560.44L3491.31 3608.81ZM3411.69 3380.26C3410.96 3457.4 3439.1 3533.84 3491.33 3608.85L3560.9 3560.4C3515.83 3495.69 3495.94 3436.15 3496.45 3381.06L3411.69 3380.26ZM3521.54 3143.12C3453.24 3225.59 3412.46 3305.17 3411.69 3380.22L3496.45 3381.1C3496.93 3335.15 3522.9 3274.38 3586.83 3197.18L3521.54 3143.12ZM3822.71 2993.04C3703.76 2993.04 3602.77 3044.82 3521.51 3143.15L3586.86 3197.15C3654.05 3115.84 3732.07 3077.8 3822.71 3077.8V2993.04ZM4051.17 3088.15C3978.64 3027.03 3902.26 2993.04 3822.71 2993.04V3077.8C3876.63 3077.8 3934.36 3100.57 3996.55 3152.97L4051.17 3088.15ZM4212.26 3254.69C4129.04 3164.06 4074.21 3106.99 4050.7 3087.76L3997.02 3153.36C4014.68 3167.81 4064.64 3219.27 4149.83 3312.03L4212.26 3254.69ZM4138.66 2914.73V3283.36H4223.43V2914.73H4138.66ZM3414.78 2957.11H4181.05V2872.34H3414.78V2957.11ZM3380.16 2957.11H3414.78V2872.34H3380.16V2957.11ZM3204.26 2957.11H3380.16V2872.34H3204.26V2957.11ZM3246.65 3172.02V2914.73H3161.88V3172.02H3246.65ZM3309.08 3225.32C3284.29 3200.52 3266.21 3181.74 3254.5 3168.71C3248.56 3162.11 3244.87 3157.66 3242.89 3155C3241.84 3153.61 3241.91 3153.55 3242.42 3154.47C3242.68 3154.94 3243.47 3156.38 3244.28 3158.55C3244.93 3160.29 3246.65 3165.23 3246.65 3172.02H3161.88C3161.88 3184.72 3167.57 3194.29 3168.44 3195.86C3170.52 3199.57 3172.92 3202.99 3175 3205.76C3179.25 3211.45 3184.92 3218.11 3191.45 3225.38C3204.69 3240.11 3224.04 3260.16 3249.14 3285.26L3309.08 3225.32ZM3378.57 3453.64C3378.57 3361.95 3358.36 3284.8 3311.82 3228.33L3246.41 3282.25C3275.96 3318.1 3293.8 3373.18 3293.8 3453.64H3378.57ZM3166.45 3808.08C3235.3 3770.77 3288.89 3722.25 3325.07 3661.84C3361.25 3601.41 3378.57 3531.49 3378.57 3453.64H3293.8C3293.8 3518.63 3279.46 3572.99 3252.34 3618.29C3225.2 3663.6 3183.83 3702.25 3126.06 3733.55L3166.45 3808.08ZM2950.71 3861.85C3027.99 3861.85 3100.14 3843.99 3166.44 3808.08L3126.07 3733.55C3072.61 3762.5 3014.4 3777.08 2950.71 3777.08V3861.85ZM2607.34 3716.36C2720.6 3810.75 2835.3 3861.85 2950.71 3861.85V3777.08C2861.53 3777.08 2765.41 3737.74 2661.61 3651.24L2607.34 3716.36ZM2421.81 3375.05C2421.81 3502.49 2487.55 3616.32 2607.3 3716.33L2661.64 3651.27C2554.35 3561.67 2506.58 3469.66 2506.58 3375.05H2421.81ZM2484.19 3192.39C2444.06 3252.24 2421.81 3313.35 2421.81 3375.05H2506.58C2506.58 3334.45 2521.12 3289.53 2554.6 3239.6L2484.19 3192.39ZM2615 3058.6C2563.69 3094.18 2520.08 3138.9 2484.2 3192.38L2554.59 3239.61C2584.83 3194.54 2621.05 3157.55 2663.3 3128.26L2615 3058.6ZM2842.18 2993.04C2755.81 2993.04 2679.41 3014.23 2615.11 3058.52L2663.2 3128.33C2711.17 3095.28 2770.12 3077.8 2842.18 3077.8V2993.04ZM3046.9 3029.12C2960.74 3005.85 2891.7 2993.04 2842.18 2993.04V3077.8C2879.98 3077.8 2940.06 3088.07 3024.8 3110.96L3046.9 3029.12ZM2999.08 3062.55C2999.08 3060.97 2999.16 3052.06 3006.16 3042.74C3014.87 3031.12 3027.38 3027.65 3035.85 3027.65V3112.42C3048.07 3112.42 3063.39 3107.71 3073.97 3093.6C3082.83 3081.78 3083.85 3069.12 3083.85 3062.55H2999.08ZM2999.08 2914.73V3062.55H3083.85V2914.73H2999.08ZM2430.51 2957.11H3041.47V2872.34H2430.51V2957.11ZM2399.63 2957.11H2430.51V2872.34H2399.63V2957.11ZM3067.33 3191.9C3099.26 3204.26 3120.53 3221.44 3134.21 3242.28C3148.01 3263.32 3156.27 3291.44 3156.27 3329.2H3241.03C3241.03 3279.01 3229.96 3233.7 3205.08 3195.78C3180.08 3157.68 3143.35 3130.43 3097.93 3112.85L3067.33 3191.9ZM3008.72 3177.91C3022.08 3177.91 3041.21 3181.68 3067.19 3191.84L3098.08 3112.9C3066.67 3100.61 3036.53 3093.15 3008.72 3093.15V3177.91ZM2784.9 3272.87C2869.96 3206.84 2944.25 3177.91 3008.72 3177.91V3093.15C2918.5 3093.15 2826.25 3133.46 2732.92 3205.9L2784.9 3272.87ZM2645.05 3549.07C2645.05 3437.56 2690.46 3346.38 2784.95 3272.83L2732.88 3205.94C2619.03 3294.56 2560.28 3409.84 2560.28 3549.07H2645.05ZM2724.29 3656.11C2665.51 3623.45 2645.05 3587.44 2645.05 3549.07H2560.28C2560.28 3627.97 2607.18 3688.02 2683.13 3730.21L2724.29 3656.11ZM2796.33 3676.04C2773.12 3676.04 2749.22 3669.84 2724.16 3656.04L2683.25 3730.28C2719.32 3750.15 2757.18 3760.8 2796.33 3760.8V3676.04ZM3024.13 3573.22C2935.51 3645.07 2859.95 3676.04 2796.33 3676.04V3760.8C2887.41 3760.8 2981.5 3716.92 3077.52 3639.07L3024.13 3573.22ZM3156.27 3329.2C3156.27 3418.5 3115.07 3499.55 3024.14 3573.21L3077.5 3639.08C3183.68 3553.06 3241.03 3449.48 3241.03 3329.2H3156.27ZM4033.29 3250.45C4078.47 3280.22 4093.75 3310.29 4093.75 3340.43H4178.52C4178.52 3273.26 4140.78 3219.76 4079.93 3179.66L4033.29 3250.45ZM3908.78 3210.66C3950.76 3210.66 3992.04 3223.31 4033.31 3250.47L4079.9 3179.65C4026.37 3144.43 3969.1 3125.89 3908.78 3125.89V3210.66ZM3790.83 3256.66C3844.73 3223.12 3883.27 3210.66 3908.78 3210.66V3125.89C3859.45 3125.89 3804.42 3148.36 3746.05 3184.69L3790.83 3256.66ZM3627.44 3490.13C3627.44 3406.6 3675.65 3328.35 3790.84 3256.65L3746.04 3184.69C3616.73 3265.18 3542.67 3366.58 3542.67 3490.13H3627.44ZM3665.12 3612.94C3640.38 3579.11 3627.44 3538.81 3627.44 3490.13H3542.67C3542.67 3554.97 3560.3 3613.22 3596.69 3662.98L3665.12 3612.94ZM3762.83 3665.74C3723.16 3665.74 3691.6 3649.72 3665.3 3613.19L3596.51 3662.72C3637.57 3719.76 3693.96 3750.51 3762.83 3750.51V3665.74ZM3915.91 3598.37C3856.5 3646.14 3805.77 3665.74 3762.83 3665.74V3750.51C3832.16 3750.51 3901.19 3718.97 3969.02 3664.44L3915.91 3598.37ZM4031.81 3475.32C3995.67 3524.5 3956.99 3565.39 3915.93 3598.36L3969 3664.46C4016.51 3626.32 4060.17 3579.88 4100.12 3525.52L4031.81 3475.32ZM4093.75 3340.43C4093.75 3369.56 4077.13 3413.68 4031.82 3475.31L4100.11 3525.53C4148.36 3459.91 4178.52 3397.38 4178.52 3340.43H4093.75ZM2197.46 4376.62V4491.58H2282.22V4376.62H2197.46ZM2387.38 4334.23H2239.84V4419H2387.38V4334.23ZM2429.77 4491.58V4376.62H2345V4491.58H2429.77ZM2239.84 4533.97H2387.38V4449.2H2239.84V4533.97ZM1909.33 4915.32C2003.88 4886.18 2079.82 4856.26 2135.85 4825.17C2190.13 4795.05 2233.42 4759.7 2250.57 4715.89L2171.63 4685C2165.78 4699.95 2145.2 4723.04 2094.73 4751.05C2046.01 4778.08 1976.33 4805.96 1884.37 4834.31L1909.33 4915.32ZM1732.29 5065.15C1733.12 5010.43 1776.32 4956.34 1909.34 4915.31L1884.36 4834.31C1744.01 4877.6 1649.25 4949.97 1647.53 5063.87L1732.29 5065.15ZM1765.12 5162.23C1742.94 5138.19 1731.24 5107.21 1732.28 5065.57L1647.54 5063.45C1646.02 5124 1663.7 5177.33 1702.83 5219.72L1765.12 5162.23ZM1858.53 5196.5C1817.06 5196.5 1786.87 5183.92 1763.95 5161.01L1704.01 5220.95C1744.96 5261.9 1797.8 5281.26 1858.53 5281.26V5196.5ZM1921.77 5185.26C1898.57 5192.99 1877.56 5196.5 1858.53 5196.5V5281.26C1888.03 5281.26 1918.13 5275.83 1948.58 5265.68L1921.77 5185.26ZM1837.22 5089.42C1837.22 5154.01 1860 5210.23 1905.2 5255.44L1965.14 5195.5C1936.26 5166.61 1921.99 5132.14 1921.99 5089.42H1837.22ZM1911.77 4922.82C1861.65 4964.85 1837.22 5021.93 1837.22 5089.42H1921.99C1921.99 5044.5 1937.16 5012.16 1966.24 4987.77L1911.77 4922.82ZM2078.88 4866.92C2013.6 4866.92 1956.47 4884.5 1911.42 4923.11L1966.59 4987.47C1993.08 4964.76 2029.2 4951.69 2078.88 4951.69V4866.92ZM2230.04 4931.75C2192.45 4887.32 2140.04 4866.92 2078.88 4866.92V4951.69C2119.92 4951.69 2146.71 4964.5 2165.33 4986.5L2230.04 4931.75ZM2282.22 5083.67C2282.22 5024.44 2265.73 4972.29 2229.5 4931.12L2165.87 4987.12C2185.85 5009.83 2197.46 5040.71 2197.46 5083.67H2282.22ZM2155.32 5315.11C2242.19 5271.68 2282.22 5189.89 2282.22 5083.67H2197.46C2197.46 5166.51 2168.51 5213.75 2117.41 5239.29L2155.32 5315.11ZM2237.92 5280.81C2200.33 5280.81 2182.01 5269.25 2171.63 5253.69L2101.1 5300.71C2131.61 5346.47 2180.99 5365.57 2237.92 5365.57V5280.81ZM2265.82 5279.15C2255.68 5280.28 2246.39 5280.81 2237.92 5280.81V5365.57C2249.89 5365.57 2262.33 5364.83 2275.18 5363.4L2265.82 5279.15ZM2173.06 5535.21L2305.27 5345.51L2235.73 5297.04L2103.51 5486.74L2173.06 5535.21ZM2034.06 5472.01C2051.4 5494.08 2078.36 5518.35 2112.44 5544.57L2164.13 5477.38C2131.78 5452.5 2111.48 5433.34 2100.71 5419.64L2034.06 5472.01ZM1970 5372.27C1988.56 5402.35 2003.08 5425.58 2013.48 5441.84C2018.67 5449.95 2022.98 5456.54 2026.33 5461.48C2028.51 5464.7 2032.97 5471.35 2037.42 5475.79L2097.36 5415.85C2099.89 5418.38 2100.35 5419.6 2096.47 5413.88C2093.75 5409.87 2089.91 5404.01 2084.88 5396.15C2074.85 5380.48 2060.63 5357.72 2042.14 5327.76L1970 5372.27ZM1835.53 5413.48C1894.09 5413.48 1954.25 5405.99 2015.93 5391.24L1996.21 5308.79C1940.36 5322.15 1886.83 5328.71 1835.53 5328.71V5413.48ZM1516.69 5321.88C1607.65 5383.45 1714.55 5413.48 1835.53 5413.48V5328.71C1729.14 5328.71 1639.31 5302.53 1564.21 5251.68L1516.69 5321.88ZM1384 5155.64C1397.55 5219.97 1446.57 5274.69 1516.78 5321.94L1564.11 5251.62C1501.47 5209.46 1473.85 5170.93 1466.95 5138.17L1384 5155.64ZM1373.51 5062.59C1373.51 5091.61 1377.13 5122.66 1383.99 5155.55L1466.97 5138.26C1461.05 5109.83 1458.28 5084.68 1458.28 5062.59H1373.51ZM1513.9 4810.29C1421.5 4868.95 1373.51 4954.45 1373.51 5062.59H1458.28C1458.28 4984.24 1490.77 4925.38 1559.33 4881.85L1513.9 4810.29ZM1766.19 4718.64C1654.09 4745.7 1568.64 4775.72 1513.98 4810.24L1559.25 4881.91C1601.68 4855.11 1675.9 4827.64 1786.08 4801.05L1766.19 4718.64ZM1929.25 4665.63C1929.3 4665.58 1928.53 4666.29 1926.38 4667.65C1924.3 4668.97 1921.37 4670.61 1917.42 4672.53C1909.47 4676.42 1898.59 4680.86 1884.38 4685.8C1855.96 4695.67 1816.8 4706.62 1766.34 4718.61L1785.93 4801.08C1837.66 4788.79 1879.93 4777.08 1912.19 4765.87C1942.27 4755.42 1970.23 4743.33 1987.09 4727.6L1929.25 4665.63ZM1957.94 4602.72C1957.94 4627.49 1949.18 4647.5 1929.66 4665.25L1986.68 4727.97C2023.36 4694.62 2042.71 4652.05 2042.71 4602.72H1957.94ZM1932.81 4543.39C1949.79 4559.53 1957.94 4578.37 1957.94 4602.72H2042.71C2042.71 4555.53 2025.3 4514.34 1991.19 4481.93L1932.81 4543.39ZM1875.43 4518.61C1897.47 4517.79 1915.18 4524.91 1931.27 4541.85L1992.73 4483.47C1960.28 4449.31 1919.22 4432.16 1872.29 4433.9L1875.43 4518.61ZM1850.76 4530.49C1859.62 4522.37 1867.94 4519.13 1876.68 4518.55L1871.04 4433.97C1841.45 4435.94 1815.28 4448.02 1793.48 4468.01L1850.76 4530.49ZM1843.43 4549.07C1843.43 4541.61 1845.66 4535.65 1852.09 4529.22L1792.15 4469.28C1770.48 4490.95 1758.66 4518.21 1758.66 4549.07H1843.43ZM1871.94 4562.25C1852.69 4562.25 1846.06 4558.28 1844.91 4557.39C1844.67 4557.2 1844.65 4557.19 1844.48 4556.79C1844.2 4556.14 1843.43 4553.89 1843.43 4549.07H1758.66C1758.66 4577.25 1768.17 4604.94 1792.62 4624.1C1815.11 4641.73 1843.93 4647.02 1871.94 4647.02V4562.25ZM1895.42 4560.66C1886.69 4561.76 1878.88 4562.25 1871.94 4562.25V4647.02C1882.88 4647.02 1894.23 4646.24 1905.94 4644.78L1895.42 4560.66ZM1874.16 4715.07L1935.48 4626.93L1865.89 4578.52L1804.57 4666.66L1874.16 4715.07ZM1776.13 4740.91C1802.24 4740.91 1827.05 4738.01 1850.29 4731.82L1828.44 4649.91C1813.36 4653.93 1796.01 4656.14 1776.13 4656.14V4740.91ZM1609.37 4704.64C1663.13 4728.69 1718.83 4740.91 1776.13 4740.91V4656.14C1731.24 4656.14 1687.31 4646.65 1643.98 4627.26L1609.37 4704.64ZM1492.32 4556.73C1492.32 4626.94 1541.08 4674.77 1609.69 4704.78L1643.66 4627.12C1589.64 4603.49 1577.08 4578.5 1577.08 4556.73H1492.32ZM1519.61 4469.48C1502.76 4497.06 1492.32 4526.38 1492.32 4556.73H1577.08C1577.08 4546.21 1580.69 4532.09 1591.94 4513.69L1519.61 4469.48ZM1419.73 4533.97H1555.78V4449.2H1419.73V4533.97ZM1377.35 4376.62V4491.58H1462.11V4376.62H1377.35ZM1590.27 4334.23H1419.73V4419H1590.27V4334.23ZM1632.65 4428.35V4376.62H1547.88V4428.35H1632.65ZM1922.78 4309.33C1762.19 4305.45 1637.55 4330.47 1562.31 4396.5L1618.22 4460.21C1668.17 4416.37 1764.53 4390.3 1920.73 4394.08L1922.78 4309.33ZM2274.56 4591.22C2274.56 4503.5 2244.56 4431.32 2180.46 4381.86C2118.51 4334.06 2030.41 4311.99 1922.81 4309.34L1920.71 4394.08C2020.06 4396.53 2087.16 4416.94 2128.68 4448.97C2168.05 4479.35 2189.79 4524.38 2189.79 4591.22H2274.56ZM2272.47 4637.22C2273.86 4621.89 2274.56 4606.56 2274.56 4591.22H2189.79C2189.79 4603.99 2189.21 4616.76 2188.05 4629.54L2272.47 4637.22ZM2379.72 4591H2230.26V4675.76H2379.72V4591ZM2422.1 4754.1V4633.38H2337.33V4754.1H2422.1ZM2211.1 4796.48H2379.72V4711.71H2211.1V4796.48ZM2168.71 4700.44V4754.1H2253.48V4700.44H2168.71ZM2519.56 4376.62V5330.85H2604.33V4376.62H2519.56ZM2772.72 4334.23H2561.95V4419H2772.72V4334.23ZM2815.11 5330.85V4376.62H2730.34V5330.85H2815.11ZM2561.95 5373.24H2772.72V5288.47H2561.95V5373.24ZM3401.05 4886.82C3410.06 4912.72 3423.59 4971.52 3441.59 5066.64L3524.88 5050.88C3507.11 4956.95 3492.54 4891.83 3481.11 4858.97L3401.05 4886.82ZM3324.41 4796.12C3349.15 4799.37 3377.51 4819.72 3401.09 4886.93L3481.07 4858.86C3453.56 4780.44 3407.82 4721.59 3335.47 4712.07L3324.41 4796.12ZM3272.18 4812.2C3283 4799.47 3297.75 4792.56 3324.34 4796.11L3335.55 4712.08C3285.5 4705.41 3240.2 4718.94 3207.59 4757.3L3272.18 4812.2ZM3251.61 4882.48C3251.61 4850.41 3259.74 4827.78 3272.98 4811.23L3206.79 4758.28C3179.15 4792.83 3166.84 4835.35 3166.84 4882.48H3251.61ZM3263.57 4961.52C3255.33 4930.94 3251.61 4904.71 3251.61 4882.48H3166.84C3166.84 4913.9 3172.06 4947.7 3181.71 4983.55L3263.57 4961.52ZM2921.53 4898.89L3207.04 5011.94L3238.24 4933.13L2952.74 4820.08L2921.53 4898.89ZM3304.32 4579.5C3186.19 4581.48 3089.3 4602.87 3018.57 4648.55C2945.73 4695.59 2904.56 4765.9 2894.99 4854.96L2979.28 4864.01C2986.32 4798.5 3014.76 4751.92 3064.56 4719.76C3116.46 4686.24 3195.22 4666.11 3305.74 4664.26L3304.32 4579.5ZM3534.72 4650.18C3472.96 4600.47 3394.9 4578.11 3304.38 4579.5L3305.69 4664.26C3381.23 4663.1 3438.58 4681.62 3481.57 4716.22L3534.72 4650.18ZM3701.85 4870.65C3640.28 4765.47 3584.59 4689.78 3534.5 4650.01L3481.79 4716.39C3518.56 4745.59 3567.62 4809.15 3628.69 4913.47L3701.85 4870.65ZM3622.88 4491.58V4892.06H3707.65V4491.58H3622.88ZM2864.32 4533.97H3665.27V4449.2H2864.32V4533.97ZM2821.94 4376.62V4491.58H2906.71V4376.62H2821.94ZM4048.5 4334.23H2864.32V4419H4048.5V4334.23ZM4090.88 4491.58V4376.62H4006.11V4491.58H4090.88ZM3914.37 4533.97H4048.5V4449.2H3914.37V4533.97ZM3956.75 5330.85V4491.58H3871.98V5330.85H3956.75ZM3661.44 5373.24H3914.37V5288.47H3661.44V5373.24ZM3619.05 5093.25V5330.85H3703.82V5093.25H3619.05ZM3082.76 5451.8C3164.21 5451.8 3255.43 5422 3355.06 5367.57C3455.09 5312.92 3566.53 5231.81 3689.23 5125.25L3633.65 5061.25C3513.63 5165.47 3407.27 5242.45 3314.41 5293.18C3221.15 5344.14 3144.38 5367.03 3082.76 5367.03V5451.8ZM2906.65 5401.06C2959.67 5434.93 3018.72 5451.8 3082.76 5451.8V5367.03C3034.39 5367.03 2991.25 5354.52 2952.29 5329.63L2906.65 5401.06ZM2855.17 5190.78L2887.75 5372.81L2971.19 5357.88L2938.62 5175.85L2855.17 5190.78ZM3078.93 5209.91C3043.79 5209.91 2991.46 5192.12 2919.25 5147.3L2874.54 5219.32C2950.51 5266.47 3019.54 5294.68 3078.93 5294.68V5209.91ZM3458.67 5024.22C3369.09 5087.94 3292.23 5134.85 3227.81 5165.68C3162.69 5196.85 3113.72 5209.91 3078.93 5209.91V5294.68C3132.28 5294.68 3194.76 5275.48 3264.41 5242.14C3334.77 5208.46 3415.98 5158.61 3507.8 5093.3L3458.67 5024.22ZM2174.46 4088.31C2213.1 4072.85 2259.92 4064.51 2315.85 4064.51V3979.75C2251.7 3979.75 2193.77 3989.29 2142.98 4009.6L2174.46 4088.31ZM2201.11 4160.09V4048.96H2116.34V4160.09H2201.11ZM2227.7 4098.55C2194.71 4098.55 2163.84 4106.91 2136.26 4124.15L2181.19 4196.03C2194.48 4187.73 2209.6 4183.31 2227.7 4183.31V4098.55ZM2411.31 4180.36C2354.12 4128.76 2292.71 4098.55 2227.7 4098.55V4183.31C2264.89 4183.31 2306.95 4200.37 2354.52 4243.29L2411.31 4180.36ZM2560.13 4346.45L2414.51 4183.58L2351.32 4240.08L2496.94 4402.95L2560.13 4346.45ZM2815.96 4332.32H2528.54V4417.08H2815.96V4332.32ZM2521.24 4134.17L2785.67 4404.35L2846.25 4345.05L2581.82 4074.88L2521.24 4134.17ZM2315.85 4064.51C2412 4064.51 2478 4089.9 2521.21 4134.14L2581.85 4074.91C2517.76 4009.29 2426.63 3979.75 2315.85 3979.75V4064.51Z" fill="url(#paint1_linear_193_96)" fill-opacity="0.67" mask="url(#path-9-outside-9_193_96)"/>
<defs>
<linearGradient id="paint0_linear_193_96" x1="1695.39" y1="4376.39" x2="6273.16" y2="4431.75" gradientUnits="userSpaceOnUse">
<stop stop-color="#3C00E5"/>
<stop offset="1" stop-color="#DC009E"/>
</linearGradient>
<linearGradient id="paint1_linear_193_96" x1="1112.58" y1="3523.86" x2="5106.64" y2="4626.93" gradientUnits="userSpaceOnUse">
<stop stop-color="#4200FF" stop-opacity="0.68"/>
<stop offset="1" stop-color="#FF00FB" stop-opacity="0.68"/>
</linearGradient>
</defs>
</svg>
