<svg width="600" height="600" viewBox="0 0 600 600" fill="none" xmlns="http://www.w3.org/2000/svg">
<g clip-path="url(#clip0_1585_14169)">
<rect width="600" height="600" fill="#1E1E1E"/>
<line x1="780" y1="0.65" x2="-5.68245e-08" y2="0.649932" stroke="white" stroke-opacity="0.2" stroke-width="1.3"/>
<line x1="780" y1="21.4503" x2="-5.68245e-08" y2="21.4502" stroke="white" stroke-opacity="0.2" stroke-width="1.3"/>
<line x1="780" y1="42.2501" x2="-5.68245e-08" y2="42.25" stroke="white" stroke-opacity="0.2" stroke-width="1.3"/>
<line x1="780" y1="63.0504" x2="-5.68245e-08" y2="63.0503" stroke="white" stroke-opacity="0.2" stroke-width="1.3"/>
<line x1="780" y1="83.8502" x2="-5.68245e-08" y2="83.8501" stroke="white" stroke-opacity="0.2" stroke-width="1.3"/>
<line x1="780" y1="104.65" x2="-5.68245e-08" y2="104.65" stroke="white" stroke-opacity="0.2" stroke-width="1.3"/>
<line x1="780" y1="125.45" x2="-5.68245e-08" y2="125.45" stroke="white" stroke-opacity="0.2" stroke-width="1.3"/>
<line x1="780" y1="146.251" x2="-5.68245e-08" y2="146.251" stroke="white" stroke-opacity="0.2" stroke-width="1.3"/>
<line x1="780" y1="167.05" x2="-5.68245e-08" y2="167.05" stroke="white" stroke-opacity="0.2" stroke-width="1.3"/>
<line x1="780" y1="187.85" x2="-5.68245e-08" y2="187.85" stroke="white" stroke-opacity="0.2" stroke-width="1.3"/>
<line x1="780" y1="208.65" x2="-5.68245e-08" y2="208.65" stroke="white" stroke-opacity="0.2" stroke-width="1.3"/>
<line x1="780" y1="229.45" x2="-5.68245e-08" y2="229.45" stroke="white" stroke-opacity="0.2" stroke-width="1.3"/>
<line x1="780" y1="250.251" x2="-5.68245e-08" y2="250.251" stroke="white" stroke-opacity="0.2" stroke-width="1.3"/>
<line x1="780" y1="271.05" x2="-5.68245e-08" y2="271.05" stroke="white" stroke-opacity="0.2" stroke-width="1.3"/>
<line x1="780" y1="291.851" x2="-5.68245e-08" y2="291.851" stroke="white" stroke-opacity="0.2" stroke-width="1.3"/>
<line x1="780" y1="312.65" x2="-5.68245e-08" y2="312.65" stroke="white" stroke-opacity="0.2" stroke-width="1.3"/>
<line x1="780" y1="333.45" x2="-5.68245e-08" y2="333.45" stroke="white" stroke-opacity="0.2" stroke-width="1.3"/>
<line x1="780" y1="354.251" x2="-5.68245e-08" y2="354.251" stroke="white" stroke-opacity="0.2" stroke-width="1.3"/>
<line x1="780" y1="375.051" x2="-5.68245e-08" y2="375.051" stroke="white" stroke-opacity="0.2" stroke-width="1.3"/>
<line x1="780" y1="395.851" x2="-5.68245e-08" y2="395.851" stroke="white" stroke-opacity="0.2" stroke-width="1.3"/>
<line x1="780" y1="416.65" x2="-5.68245e-08" y2="416.65" stroke="white" stroke-opacity="0.2" stroke-width="1.3"/>
<line x1="780" y1="437.451" x2="-5.68245e-08" y2="437.451" stroke="white" stroke-opacity="0.2" stroke-width="1.3"/>
<line x1="780" y1="458.251" x2="-5.68245e-08" y2="458.251" stroke="white" stroke-opacity="0.2" stroke-width="1.3"/>
<line x1="780" y1="479.051" x2="-5.68245e-08" y2="479.051" stroke="white" stroke-opacity="0.2" stroke-width="1.3"/>
<line x1="780" y1="499.851" x2="-5.68245e-08" y2="499.851" stroke="white" stroke-opacity="0.2" stroke-width="1.3"/>
<line x1="780" y1="520.651" x2="-5.68245e-08" y2="520.651" stroke="white" stroke-opacity="0.2" stroke-width="1.3"/>
<line x1="780" y1="541.451" x2="-5.68245e-08" y2="541.451" stroke="white" stroke-opacity="0.2" stroke-width="1.3"/>
<line x1="780" y1="562.251" x2="-5.68245e-08" y2="562.251" stroke="white" stroke-opacity="0.2" stroke-width="1.3"/>
<line x1="780" y1="583.051" x2="-5.68245e-08" y2="583.051" stroke="white" stroke-opacity="0.2" stroke-width="1.3"/>
<line x1="0.65" y1="2.84122e-08" x2="0.649966" y2="780" stroke="white" stroke-opacity="0.2" stroke-width="1.3"/>
<line x1="21.4508" y1="2.84122e-08" x2="21.4507" y2="780" stroke="white" stroke-opacity="0.2" stroke-width="1.3"/>
<line x1="42.2516" y1="2.84122e-08" x2="42.2515" y2="780" stroke="white" stroke-opacity="0.2" stroke-width="1.3"/>
<line x1="63.0484" y1="2.84122e-08" x2="63.0484" y2="780" stroke="white" stroke-opacity="0.2" stroke-width="1.3"/>
<line x1="83.8492" y1="2.84122e-08" x2="83.8492" y2="780" stroke="white" stroke-opacity="0.2" stroke-width="1.3"/>
<line x1="104.65" y1="2.84122e-08" x2="104.65" y2="780" stroke="white" stroke-opacity="0.2" stroke-width="1.3"/>
<line x1="125.451" y1="2.84122e-08" x2="125.451" y2="780" stroke="white" stroke-opacity="0.2" stroke-width="1.3"/>
<line x1="146.252" y1="2.84122e-08" x2="146.252" y2="780" stroke="white" stroke-opacity="0.2" stroke-width="1.3"/>
<line x1="167.048" y1="2.84122e-08" x2="167.048" y2="780" stroke="white" stroke-opacity="0.2" stroke-width="1.3"/>
<line x1="187.849" y1="2.84122e-08" x2="187.849" y2="780" stroke="white" stroke-opacity="0.2" stroke-width="1.3"/>
<line x1="208.65" y1="2.84122e-08" x2="208.65" y2="780" stroke="white" stroke-opacity="0.2" stroke-width="1.3"/>
<line x1="229.451" y1="2.84122e-08" x2="229.451" y2="780" stroke="white" stroke-opacity="0.2" stroke-width="1.3"/>
<line x1="250.252" y1="2.84122e-08" x2="250.252" y2="780" stroke="white" stroke-opacity="0.2" stroke-width="1.3"/>
<line x1="271.052" y1="2.84122e-08" x2="271.052" y2="780" stroke="white" stroke-opacity="0.2" stroke-width="1.3"/>
<line x1="291.849" y1="2.84122e-08" x2="291.849" y2="780" stroke="white" stroke-opacity="0.2" stroke-width="1.3"/>
<line x1="312.65" y1="2.84122e-08" x2="312.65" y2="780" stroke="white" stroke-opacity="0.2" stroke-width="1.3"/>
<line x1="333.451" y1="2.84122e-08" x2="333.451" y2="780" stroke="white" stroke-opacity="0.2" stroke-width="1.3"/>
<line x1="354.252" y1="2.84122e-08" x2="354.252" y2="780" stroke="white" stroke-opacity="0.2" stroke-width="1.3"/>
<line x1="375.052" y1="2.84122e-08" x2="375.052" y2="780" stroke="white" stroke-opacity="0.2" stroke-width="1.3"/>
<line x1="395.849" y1="2.84122e-08" x2="395.849" y2="780" stroke="white" stroke-opacity="0.2" stroke-width="1.3"/>
<line x1="416.65" y1="2.84122e-08" x2="416.65" y2="780" stroke="white" stroke-opacity="0.2" stroke-width="1.3"/>
<line x1="437.451" y1="2.84122e-08" x2="437.451" y2="780" stroke="white" stroke-opacity="0.2" stroke-width="1.3"/>
<line x1="458.252" y1="2.84122e-08" x2="458.252" y2="780" stroke="white" stroke-opacity="0.2" stroke-width="1.3"/>
<line x1="479.052" y1="2.84122e-08" x2="479.052" y2="780" stroke="white" stroke-opacity="0.2" stroke-width="1.3"/>
<line x1="499.849" y1="2.84122e-08" x2="499.849" y2="780" stroke="white" stroke-opacity="0.2" stroke-width="1.3"/>
<line x1="520.65" y1="2.84122e-08" x2="520.65" y2="780" stroke="white" stroke-opacity="0.2" stroke-width="1.3"/>
<line x1="541.451" y1="2.84122e-08" x2="541.451" y2="780" stroke="white" stroke-opacity="0.2" stroke-width="1.3"/>
<line x1="562.252" y1="2.84122e-08" x2="562.252" y2="780" stroke="white" stroke-opacity="0.2" stroke-width="1.3"/>
<line x1="583.052" y1="2.84122e-08" x2="583.052" y2="780" stroke="white" stroke-opacity="0.2" stroke-width="1.3"/>
</g>
<defs>
<clipPath id="clip0_1585_14169">
<rect width="600" height="600" fill="white"/>
</clipPath>
</defs>
</svg>
