<svg width="600" height="600" viewBox="0 0 600 600" fill="none" xmlns="http://www.w3.org/2000/svg">
<g clip-path="url(#clip0_1585_14169)">
<rect width="600" height="600" fill="black"/>
<line x1="2208" y1="2.08" x2="-288" y2="2.07978" stroke="white" stroke-opacity="0.2" stroke-width="4.16"/>
<line x1="2208" y1="78.8803" x2="-288" y2="78.8801" stroke="white" stroke-opacity="0.2" stroke-width="4.16"/>
<line x1="2208" y1="155.68" x2="-288" y2="155.68" stroke="white" stroke-opacity="0.2" stroke-width="4.16"/>
<line x1="2208" y1="232.48" x2="-288" y2="232.48" stroke="white" stroke-opacity="0.2" stroke-width="4.16"/>
<line x1="2208" y1="309.281" x2="-288" y2="309.28" stroke="white" stroke-opacity="0.2" stroke-width="4.16"/>
<line x1="2208" y1="386.08" x2="-288" y2="386.08" stroke="white" stroke-opacity="0.2" stroke-width="4.16"/>
<line x1="2208" y1="462.881" x2="-288" y2="462.881" stroke="white" stroke-opacity="0.2" stroke-width="4.16"/>
<line x1="2208" y1="539.681" x2="-288" y2="539.681" stroke="white" stroke-opacity="0.2" stroke-width="4.16"/>
<line x1="2.08" y1="9.0919e-08" x2="2.07989" y2="2496" stroke="white" stroke-opacity="0.2" stroke-width="4.16"/>
<line x1="78.8808" y1="9.0919e-08" x2="78.8807" y2="2496" stroke="white" stroke-opacity="0.2" stroke-width="4.16"/>
<line x1="155.682" y1="9.0919e-08" x2="155.681" y2="2496" stroke="white" stroke-opacity="0.2" stroke-width="4.16"/>
<line x1="232.482" y1="9.0919e-08" x2="232.482" y2="2496" stroke="white" stroke-opacity="0.2" stroke-width="4.16"/>
<line x1="309.279" y1="9.0919e-08" x2="309.279" y2="2496" stroke="white" stroke-opacity="0.2" stroke-width="4.16"/>
<line x1="386.08" y1="9.0919e-08" x2="386.08" y2="2496" stroke="white" stroke-opacity="0.2" stroke-width="4.16"/>
<line x1="462.881" y1="9.0919e-08" x2="462.881" y2="2496" stroke="white" stroke-opacity="0.2" stroke-width="4.16"/>
<line x1="539.682" y1="9.0919e-08" x2="539.681" y2="2496" stroke="white" stroke-opacity="0.2" stroke-width="4.16"/>
</g>
<defs>
<clipPath id="clip0_1585_14169">
<rect width="600" height="600" fill="white"/>
</clipPath>
</defs>
</svg>
